<svg xmlns="http://www.w3.org/2000/svg" viewBox="0 0 249 268.29"><defs><style>.cls-1{fill:#29235c;}.cls-2{fill:#fff;}.cls-3,.cls-4{fill:none;stroke:#fff;stroke-miterlimit:10;}.cls-3{stroke-width:4px;}.cls-4{stroke-width:6px;}</style></defs><g id="Camada_2" data-name="Camada 2"><g id="Camada_1-2" data-name="Camada 1"><rect class="cls-1" width="249" height="268.29" rx="18.21"/><path class="cls-2" d="M32.29,217.12V215.5h4.65v2h-.49Zm4.65,14.27v2H32.29v-1.62l4.16-.42ZM34.22,224c0-2.84,0-5.7-.08-8.53h5.61c-.09,2.78-.09,5.64-.09,8.53v.85c0,2.86,0,5.72.09,8.55H34.14c.08-2.78.08-5.64.08-8.52Zm2.72,7.7H40.1c2.7,0,4.48-2.62,4.48-7.29s-1.78-7.23-4.5-7.23H36.94V215.5h3.55c6.1,0,9.59,3.49,9.59,8.88,0,5.67-3.79,9.05-10.06,9.05H36.94Z"/><path class="cls-2" d="M50.64,217.12V215.5H60v1.62l-4.26.42h-.91Zm5.06,14.27,4.26.42v1.62H50.64v-1.62l4.15-.42ZM52.56,224c0-2.84,0-5.7-.08-8.53h5.61C58,218.28,58,221.14,58,224v.85c0,2.86,0,5.72.08,8.55H52.48c.08-2.78.08-5.64.08-8.52Z"/><path class="cls-2" d="M69.89,229.91c0-1.32-.58-1.92-2-2.58l-1.21-.58c-3.41-1.62-5.25-3.27-5.25-6.41,0-3.35,2.67-5.39,7.1-5.39A10.8,10.8,0,0,1,74,216.33l-.25,4H70.93l-.63-4.16,2.39.75v1.37c-1.51-1-2.56-1.57-4-1.57a2.35,2.35,0,0,0-2.47,2.26c0,1.35.77,2,2.25,2.72l1.38.66c3.46,1.65,4.92,3.14,4.92,6,0,3.24-2.39,5.66-7.45,5.66a12.5,12.5,0,0,1-6.22-1.43l.17-4.18h2.91l.72,4.54-2.26-.64V231a10.25,10.25,0,0,0,4.7,1.29A2.27,2.27,0,0,0,69.89,229.91Z"/><path class="cls-2" d="M76,217.12l2.28-1.62-.66,5.2H75.06l0-5.2H91.69l0,5.2H89.16l-.66-5.2,2.26,1.62Zm8.06,14.27,4.26.42v1.62H78.47v-1.62l4.15-.42ZM80.67,224c0-2.84,0-5.7-.09-8.53h5.61c-.08,2.78-.08,5.64-.08,8.53v.85c0,2.86,0,5.72.08,8.55H80.58c.09-2.78.09-5.64.09-8.52Z"/><path class="cls-2" d="M92.6,217.12V215.5h4.65v2h-.5Zm5.14,14.27,4.16.42v1.62H92.6v-1.62l4.15-.42ZM94.53,224c0-2.84,0-5.7-.09-8.53h5.5c-.08,2.78-.08,5.64-.08,8.53v.85c0,2.86,0,5.72.08,8.55h-5.5c.09-2.78.09-5.64.09-8.52Zm2.77-.47h3.17c2.63,0,3.24-1.6,3.24-3.19,0-2.17-1.18-3.16-3.19-3.16H97.25V215.5h4.81c4.37,0,6.74,1.68,6.74,4.46,0,2-1.46,4.18-6.82,4.42v-.3c5.25.11,6.29,1.73,6.68,4.87l.49,4.12-2.8-1.76,4.62.5v1.62a11.88,11.88,0,0,1-3.41.44c-2.59,0-4.21-.77-4.46-3.24l-.27-2.7c-.16-1.7-.71-2.72-2.12-2.72H97.3Z"/><path class="cls-2" d="M111.3,217.12V215.5h9.32v1.62l-4.26.42h-.91Zm5.06,14.27,4.26.42v1.62H111.3v-1.62l4.15-.42ZM113.23,224c0-2.84,0-5.7-.09-8.53h5.61c-.08,2.78-.08,5.64-.08,8.53v.85c0,2.86,0,5.72.08,8.55h-5.61c.09-2.78.09-5.64.09-8.52Z"/><path class="cls-2" d="M121.72,217.12V215.5h4.65v2h-.49Zm4.65,14.27v2h-4.65v-1.62l4.16-.42Zm-2.72-7.2c0-2.89,0-5.8-.08-8.69h5.49c-.08,2.83-.08,5.75-.08,8.69v.55c0,2.92,0,5.8.08,8.69h-5.49c.08-2.83.08-5.72.08-8.66Zm2.72-.93h3.11c1.92,0,2.86-1.16,2.86-3.19,0-1.85-.83-2.86-2.73-2.86h-3.24V215.5H131c5,0,6.57,1.82,6.57,4.15,0,2-1.18,3.69-5.94,4.24v-.25c5.09.28,7.07,1.93,7.07,4.7,0,2.23-1.54,5.09-9,5.09h-3.3v-1.7h3.24c2.15,0,3.52-1.16,3.52-3.44,0-2.48-1.15-3.49-3.46-3.49h-3.3Z"/><path class="cls-2" d="M138.8,217.12V215.5h9.46v1.62l-4.29.42h-.88Zm11,14.14c2.2,0,3.63-1.6,3.63-5.45V215.5h1.95v10c0,5.85-2.67,8.44-7.54,8.44-4.09,0-7.14-1.92-7.14-7.34v-3c0-2.67,0-5.42-.09-8.14h5.61c-.08,2.67-.08,5.42-.08,8.14v2.09C146.17,229.75,147.3,231.26,149.83,231.26ZM154,217.32l-2.89-.2V215.5h6.55v1.62l-2.75.2Z"/><path class="cls-2" d="M158.16,217.12V215.5h9.32v1.62l-4.26.42h-.91Zm5.06,14.27,4.26.42v1.62h-9.32v-1.62l4.15-.42ZM160.09,224c0-2.84,0-5.7-.09-8.53h5.61c-.08,2.78-.08,5.64-.08,8.53v.85c0,2.86,0,5.72.08,8.55H160c.09-2.78.09-5.64.09-8.52Z"/><path class="cls-2" d="M182.55,230.85v1.37l-1.9.41,1-4.4h2.26l-.11,4.32A11.92,11.92,0,0,1,178,234c-5.2,0-9.65-2.78-9.65-9.51,0-6.91,4.84-9.52,9.92-9.52a10.62,10.62,0,0,1,5.42,1.38l.11,4.37h-2.25l-1-4.46,1.9.44v1.46a4.87,4.87,0,0,0-3.36-1.57c-2.64,0-5.05,2.2-5.05,7.92s2.39,7.84,4.94,7.84A6.19,6.19,0,0,0,182.55,230.85Zm-5.75,2.44h1.6l-.25,2.09-1-.77c3,.28,3.9,1.35,3.9,2.53,0,1.46-1.32,2.53-4,2.53a6,6,0,0,1-2.3-.41l.33-1.43a4.43,4.43,0,0,0,1.51.27c1,0,1.37-.38,1.37-1,0-.79-.58-1.18-1.65-1.24Z"/><path class="cls-2" d="M184.09,231.81l2.86-.42h.47l2.45.42v1.62h-5.78Zm7.67-16.31h3.3l6.14,17.93h-5.53l-4.37-14.11,1.18-1.92-5.11,16h-1.76Zm-.3-5.63a4,4,0,0,1,2,.66,3.54,3.54,0,0,0,1.76.68,1.86,1.86,0,0,0,1.7-1.4l1.3.55c-.31,2.53-1.65,4-3.19,4a4.56,4.56,0,0,1-2.12-.66,3.48,3.48,0,0,0-1.76-.69,1.84,1.84,0,0,0-1.68,1.38l-1.29-.55C188.49,211.24,189.84,209.87,191.46,209.87Zm-2.55,16.88h7.42l.69,1.73h-8.58Zm4.31,5.14,3-.41h2.34l3.57.41v1.54h-8.88Z"/><path class="cls-2" d="M220,224.47c0,6.46-4.21,9.51-8.86,9.51s-8.85-3-8.85-9.51,4.23-9.52,8.85-9.52S220,218,220,224.47Zm-8.86,7.83c2.34,0,3.22-3.1,3.22-7.83s-.88-7.87-3.22-7.87-3.21,3.16-3.21,7.87S208.81,232.3,211.15,232.3Z"/><polygon class="cls-3" points="174.05 180.39 122.89 158.93 174 136.27 224.14 158.23 174.05 180.39"/><polygon class="cls-3" points="150.21 57.73 99.43 36.35 120.25 22.44 173.04 45.68 150.21 57.73"/><line class="cls-4" x1="120.96" y1="159.14" x2="121.29" y2="23.82"/><path class="cls-4" d="M148.93,56.6c0,1.29-1.07,113.15-1.07,113.15"/><path class="cls-4" d="M174.32,45.68v134"/><line class="cls-3" x1="28.07" y1="139.53" x2="81.11" y2="161.71"/><line class="cls-3" x1="49.93" y1="182.6" x2="105.21" y2="203.82"/><path class="cls-4" d="M28.07,137.34c-1,2.25-4.34,21.8,6.75,35.41,5.18,6.35,12.69,8,15.43,8.78a40.48,40.48,0,0,0,24-.85,37,37,0,0,0,9.48-4.5,35.64,35.64,0,0,0,7.07-6.43,41,41,0,0,0,5.62-8.36q1.22-62.52,2.42-125"/><path class="cls-4" d="M80.61,159.45a34.86,34.86,0,0,0,24,43.07c18.5,5.23,42.06-5.93,42.54-32.45"/></g></g></svg>